<svg width="15" height="14" viewBox="0 0 15 14" fill="none" xmlns="http://www.w3.org/2000/svg">
<path fill-rule="evenodd" clip-rule="evenodd" d="M0.75 13.375V3.375L1.375 2.75H3.875L4.5 3.375V13.375L3.875 14H1.375L0.75 13.375ZM3.25 12.75V4H2V12.75H3.25ZM10.75 0.875V13.375L11.375 14H13.875L14.5 13.375V0.875L13.875 0.25H11.375L10.75 0.875ZM13.25 1.5V12.75H12V1.5H13.25ZM5.75 13.375V5.875L6.375 5.25H8.875L9.5 5.875V13.375L8.875 14H6.375L5.75 13.375ZM8.25 12.75V6.5H7V12.75H8.25Z" fill="#9A9A9A"/>
</svg>
