<svg width="17" height="13" viewBox="0 0 17 13" fill="none" xmlns="http://www.w3.org/2000/svg">
<path d="M16.2188 5.23828H14.2148V3.13047C14.2148 2.80205 13.9495 2.53672 13.6211 2.53672H7.77637L5.5999 0.454883C5.57221 0.428958 5.53578 0.414388 5.49785 0.414062H0.78125C0.452832 0.414062 0.1875 0.679395 0.1875 1.00781V11.9922C0.1875 12.3206 0.452832 12.5859 0.78125 12.5859H13.7324C13.9736 12.5859 14.1926 12.4394 14.2835 12.2148L16.7698 6.05469C16.7977 5.98418 16.8125 5.90811 16.8125 5.83203C16.8125 5.50361 16.5472 5.23828 16.2188 5.23828ZM1.52344 1.75H5.021L7.24014 3.87266H12.8789V5.23828H3.41602C3.1748 5.23828 2.95586 5.38486 2.86494 5.60938L1.52344 8.93437V1.75ZM13.3112 11.25H1.9502L3.86689 6.5H15.2298L13.3112 11.25Z" fill="#212121"/>
</svg>
