<svg width="17" height="17" viewBox="0 0 17 17" fill="none" xmlns="http://www.w3.org/2000/svg">
<path fill-rule="evenodd" clip-rule="evenodd" d="M14.738 5.40004L14.2971 4.63497C13.9241 3.98761 13.0975 3.76429 12.4493 4.13574C12.1407 4.31752 11.7725 4.36909 11.4259 4.27908C11.0792 4.18908 10.7826 3.96489 10.6015 3.65595C10.4849 3.45959 10.4223 3.23593 10.4199 3.00759C10.4304 2.64151 10.2923 2.28676 10.037 2.02416C9.78178 1.76156 9.43108 1.61347 9.06485 1.61362H8.17659C7.8178 1.61362 7.4738 1.75659 7.2207 2.0109C6.9676 2.26521 6.82628 2.6099 6.82801 2.96869C6.81737 3.70947 6.21379 4.30439 5.47293 4.30431C5.2446 4.30194 5.02094 4.23932 4.82457 4.12277C4.17633 3.75132 3.34974 3.97465 2.97675 4.62201L2.50344 5.40004C2.13091 6.04659 2.35119 6.87266 2.9962 7.24787C3.41546 7.48992 3.67374 7.93727 3.67374 8.4214C3.67374 8.90552 3.41546 9.35287 2.9962 9.59493C2.35201 9.9676 2.13149 10.7917 2.50344 11.4363L2.95081 12.2078C3.12557 12.5232 3.41879 12.7559 3.76559 12.8544C4.11238 12.953 4.48415 12.9093 4.79864 12.733C5.1078 12.5526 5.47621 12.5032 5.82198 12.5957C6.16776 12.6882 6.46224 12.9151 6.63998 13.2257C6.75653 13.4221 6.81915 13.6458 6.82152 13.8741C6.82152 14.6225 7.42821 15.2292 8.17659 15.2292H9.06485C9.81071 15.2292 10.4164 14.6264 10.4199 13.8806C10.4182 13.5207 10.5604 13.175 10.8149 12.9205C11.0694 12.666 11.4151 12.5238 11.775 12.5255C12.0028 12.5316 12.2255 12.594 12.4234 12.7071C13.0699 13.0796 13.896 12.8593 14.2712 12.2143L14.738 11.4363C14.9187 11.1261 14.9683 10.7567 14.8758 10.4099C14.7833 10.0631 14.5564 9.76744 14.2452 9.58845C13.9341 9.40945 13.7072 9.11381 13.6147 8.76698C13.5222 8.42015 13.5718 8.05077 13.7525 7.74062C13.87 7.53547 14.0401 7.36537 14.2452 7.24787C14.8864 6.87286 15.1062 6.05162 14.738 5.40652V5.40004Z" stroke="#9A9A9A" stroke-linecap="round" stroke-linejoin="round"/>
<path d="M8.624 10.2886C9.65521 10.2886 10.4912 9.4526 10.4912 8.4214C10.4912 7.39019 9.65521 6.55423 8.624 6.55423C7.5928 6.55423 6.75684 7.39019 6.75684 8.4214C6.75684 9.4526 7.5928 10.2886 8.624 10.2886Z" stroke="#9A9A9A" stroke-linecap="round" stroke-linejoin="round"/>
</svg>
