<svg width="18" height="19" viewBox="0 0 18 19" fill="none" xmlns="http://www.w3.org/2000/svg">
<path d="M7.67312 1.45223C8.04474 1.13995 8.5146 0.96875 9 0.96875C9.4854 0.96875 9.95526 1.13995 10.3269 1.45223L16.5144 6.65523C16.7447 6.84877 16.9299 7.09035 17.057 7.36303C17.184 7.63571 17.2499 7.93289 17.25 8.23373V16.8756C17.25 17.2403 17.1051 17.59 16.8473 17.8479C16.5894 18.1057 16.2397 18.2506 15.875 18.2506H12.0938C11.7291 18.2506 11.3793 18.1057 11.1215 17.8479C10.8636 17.59 10.7188 17.2403 10.7188 16.8756V12.0631H7.28125V16.8756C7.28125 17.2403 7.13638 17.59 6.87852 17.8479C6.62066 18.1057 6.27092 18.2506 5.90625 18.2506H2.125C1.76033 18.2506 1.41059 18.1057 1.15273 17.8479C0.894866 17.59 0.75 17.2403 0.75 16.8756V8.23304C0.750076 7.9322 0.815963 7.63502 0.94304 7.36234C1.07012 7.08966 1.25531 6.84808 1.48563 6.65454L7.67312 1.45154V1.45223ZM9.44275 2.5041C9.31881 2.39977 9.16201 2.34256 9 2.34256C8.83799 2.34256 8.68119 2.39977 8.55725 2.5041L2.36975 7.70848C2.29327 7.77286 2.23175 7.85315 2.18948 7.94375C2.14721 8.03434 2.1252 8.13307 2.125 8.23304V16.8749H5.90625V12.0624C5.90625 11.6977 6.05112 11.348 6.30898 11.0901C6.56684 10.8323 6.91658 10.6874 7.28125 10.6874H10.7188C11.0834 10.6874 11.4332 10.8323 11.691 11.0901C11.9489 11.348 12.0938 11.6977 12.0938 12.0624V16.8749H15.875V8.23304C15.875 8.13284 15.8531 8.03384 15.8108 7.94299C15.7685 7.85215 15.7069 7.77164 15.6302 7.7071L9.44275 2.5041Z" fill="#9A9A9A"/>
</svg>
